<?xml version="1.0" encoding="UTF-8" standalone="no"?>
<svg
   viewBox="0 0 92 44"
   xml:space="preserve"
   version="1.1"
   id="svg188"
   sodipodi:docname="ucla-logo-compact.svg"
   inkscape:export-filename="ucla-logo.png"
   inkscape:export-xdpi="1090.9091"
   inkscape:export-ydpi="1090.9091"
   inkscape:version="1.2.2 (b0a84865, 2022-12-01)"
   width="92"
   height="44"
   xmlns:inkscape="http://www.inkscape.org/namespaces/inkscape"
   xmlns:sodipodi="http://sodipodi.sourceforge.net/DTD/sodipodi-0.dtd"
   xmlns="http://www.w3.org/2000/svg"
   xmlns:svg="http://www.w3.org/2000/svg"><defs
     id="defs192" /><sodipodi:namedview
     id="namedview190"
     pagecolor="#ffffff"
     bordercolor="#666666"
     borderopacity="1.0"
     inkscape:showpageshadow="2"
     inkscape:pageopacity="0.0"
     inkscape:pagecheckerboard="false"
     inkscape:deskcolor="#d1d1d1"
     showgrid="false"
     inkscape:zoom="2.0473994"
     inkscape:cx="48.354023"
     inkscape:cy="42.737142"
     inkscape:window-width="1309"
     inkscape:window-height="757"
     inkscape:window-x="0"
     inkscape:window-y="25"
     inkscape:window-maximized="0"
     inkscape:current-layer="svg188" /><path
     style="fill:#2774ae"
     d="M 0,0 H 92 V 44 H 0 Z"
     id="path184" /><path
     d="M 14.7,26.2 V 24 l 1,-12 h 3.8 l -1,12.1 c -0.2,2.6 0.8,4.5 3.3,4.5 2.5,0 4,-1.9 4.2,-4.2 L 27,12 h 4 l -1,12.2 c -0.4,4.7 -3.5,8.2 -8.4,8.2 -3.9,0.1 -6.4,-2.5 -6.9,-6.2 m 17.2,-4 c 0.5,-5.8 4.3,-10.5 10.9,-10.5 1.8,0 3.6,0.5 5.1,1.5 L 47.5,18 c -1.1,-1.6 -3,-2.5 -5,-2.4 -4.1,0 -6.3,2.9 -6.7,6.6 -0.4,3.7 1.5,6.5 5.5,6.5 2.1,0 4.1,-0.9 5.5,-2.5 L 46.3,31 c -1.6,1 -3.5,1.5 -5.4,1.5 -6.5,0 -9.5,-4.9 -9,-10.3 M 50.9,12 h 3.8 l -1.4,16.3 h 7.5 c 0,0.2 -0.3,3.8 -0.3,3.8 H 49.2 Z m 20,7.5 c 0.1,-0.3 0.2,-0.6 0.3,-0.8 h 0.1 c 0,0.3 0.1,0.6 0.2,0.8 0.2,0.9 1.7,6 1.7,6 h -4.8 c -0.1,0 2.5,-5.8 2.5,-6 m 1,-8.4 H 71.6 L 61.1,32 h 4.1 l 1.5,-3.2 h 7.4 L 75,32 h 4.1 z"
     style="fill:#ffffff"
     id="path186" /></svg>
