<svg xmlns="http://www.w3.org/2000/svg" viewBox="0 0 373 44" style="enable-background:new 0 0 373 44" xml:space="preserve"><path d="M100.7 29.2c0-5.2 3.2-9.1 8.3-9.1 4.3 0 6.8 2.5 7.1 5.8h-3.5c-.3-1.8-1.9-3-3.7-2.9-3.2 0-4.7 2.7-4.7 6.1s1.8 6.1 4.8 6.1c1.8.1 3.5-1.2 3.7-3h3.4c-.1 1.6-.8 3-1.9 4.1-1.4 1.3-3.3 2-5.3 1.8-4.7 0-8.2-3.7-8.2-8.9zm20.4-2.2c.8-1.3 2.2-2.1 3.7-2 2.6 0 4.3 1.9 4.3 4.7v8.1h-3.3v-7.6c.1-1.1-.7-2.2-1.9-2.3h-.3c-1.4 0-2.6 1.2-2.5 2.7v7.2h-3.3V20.4h3.3V27zm9.3 4.5c0-3.7 2.5-6.5 6.1-6.5 4 0 6.1 3 6.1 7.5h-9c.2 1.9 1.3 3.1 3.2 3.1 1.1.1 2-.5 2.4-1.5h3.2c-.5 2.2-2.4 4.1-5.6 4.1-4-.1-6.4-3-6.4-6.7zm3.3-1.3h5.5c0-1.4-1.1-2.6-2.6-2.7h-.1c-1.6 0-2.5 1.1-2.8 2.7zm10.5-4.9h3.2V27h.1c.7-1.3 2.1-2 3.6-2s2.8.8 3.4 2.2c.8-1.4 2.2-2.2 3.8-2.2 2.6 0 4.1 1.7 4.1 4.4v8.4h-3.3V30c0-1.4-.7-2.1-1.9-2.1-1.4 0-2.2 1.1-2.2 2.7v7.2h-3.3V30c0-1.4-.7-2.1-1.9-2.1s-2.2 1.1-2.2 2.7v7.2h-3.3V25.3zm20.2-4.9h3.3v3h-3.3v-3zm0 4.9h3.3v12.4h-3.3V25.3zm4.7 8.5h3.1c.2 1.3 1.4 2.2 2.7 2.1 1.5 0 2.3-.6 2.3-1.4 0-1.2-1.6-1.3-3.3-1.7-2.2-.4-4.4-1-4.4-3.8s2.2-4 5.1-4c3.3 0 5.1 1.6 5.3 4.1h-3c-.1-1.3-1-1.8-2.4-1.8s-2.1.5-2.1 1.4c0 1.1 1.6 1.2 3.4 1.5 2.1.4 4.4 1 4.4 3.9 0 2.5-2.1 4-5.2 4-3.7 0-5.7-1.7-5.9-4.3zm11.5-8.5h1.7v-3.9h3.2v3.9h2.1v2.2h-2.1v6.6c-.1.6.3 1.2.9 1.2h1.3v2.4h-2.1c-1.6 0-3.4-.6-3.4-3v-7.3h-1.7l.1-2.1zm11.8 2c.8-1.4 1.7-2.1 3.1-2.1.3 0 .5 0 .8.1v2.9h-.1c-2.2-.2-3.7.9-3.7 3.5v6.1h-3.3V25.3h3.2v2zm5.8 11.9h1.2c1.3 0 1.8-.7 1.8-1.7-.1-1.2-.4-2.3-.9-3.4l-3.4-8.8h3.5l1.8 5.6c.4 1.1.8 2.7.8 2.7h.1s.3-1.6.7-2.7l1.7-5.6h3.3l-4.3 12.8c-.9 2.8-1.9 3.8-4.4 3.8h-1.9v-2.7zm15.2-5.9c0-2.5 1.6-4 3.8-5.2-.9-1-1.4-2.3-1.4-3.6 0-2.3 1.8-4 4.5-4s4.5 1.6 4.5 4c0 2.1-1.2 3.2-3.1 4.2l2.3 3c.4-.9.6-1.9.7-2.8h2.9c-.1 1.9-.7 3.7-1.6 5.3l2.7 3.5h-4l-.9-1.1c-1.3 1-3 1.5-4.6 1.5-3.8 0-5.8-2.1-5.8-4.8zm8.7 1.1-3.2-4.1c-1.2.5-2 1.7-2 3 0 1.2 1 2.2 2.2 2.2h.2c1 0 2-.4 2.8-1.1zm-1.9-7.6c.9-.4 1.5-1.3 1.5-2.3 0-.8-.6-1.4-1.4-1.4s-1.4.6-1.4 1.4c.2 1 .6 1.8 1.3 2.3zm14.1-6.4h7.7c1.5-.1 3 .3 4.2 1.3 1 .8 1.5 2 1.4 3.3 0 1.6-1.1 3.1-2.7 3.5v.1c1.9.5 3.3 2.3 3.2 4.3.1 1.4-.5 2.7-1.5 3.6-1.2 1-2.8 1.5-4.4 1.4h-8l.1-17.5zm7.3 7c1.5 0 2.6-.7 2.6-2.1s-1-2-2.5-2h-3.9v4.1h3.8zm-3.8 7.5h4c1.7 0 2.7-.9 2.7-2.3 0-1.7-1.2-2.5-2.8-2.5h-3.9v4.8zm12.1-14.5h3.3v3h-3.3v-3zm0 4.9h3.3v12.4h-3.3V25.3zm4.8 6.3c0-3.6 3-6.5 6.6-6.4 3.6 0 6.5 3 6.4 6.6 0 3.6-2.9 6.4-6.5 6.4-3.5.1-6.4-2.6-6.5-6.1v-.5zm9.6 0c0-2.4-1.1-4.1-3.1-4.1s-3.2 1.7-3.2 4.1 1.1 4 3.2 4 3.1-1.6 3.1-4zm4.2 0c0-3.7 2.4-6.6 6.2-6.6 3.2 0 5.2 1.9 5.6 4.5h-3.2c-.2-1.1-1.2-1.9-2.3-1.9-2 0-3 1.5-3 3.9s1 3.9 3 3.9c1.3.1 2.4-.8 2.5-2.1h3.2c-.2 2.7-2.3 4.8-5.6 4.8-3.9 0-6.4-2.8-6.4-6.5zm16.7-4.6c.8-1.3 2.2-2.1 3.7-2 2.6 0 4.3 1.9 4.3 4.7v8.1h-3.3v-7.6c.1-1.1-.7-2.1-1.8-2.3h-.3c-1.4 0-2.6 1.2-2.5 2.6v7.2H282V20.4h3.3l-.1 6.6zm9.3 4.5c0-3.7 2.5-6.5 6.1-6.5 4 0 6.1 3 6.1 7.5h-9c.2 1.9 1.3 3.1 3.2 3.1 1.1.1 2-.5 2.4-1.5h3.2c-.5 2.2-2.4 4.1-5.6 4.1-4-.1-6.4-3-6.4-6.7zm3.3-1.3h5.5c0-1.4-1.1-2.6-2.6-2.7h-.1c-1.6 0-2.5 1.1-2.8 2.7zm10.5-4.9h3.2V27h.1c.7-1.3 2.1-2 3.6-2s2.8.8 3.5 2.2c.8-1.3 2.2-2.2 3.7-2.2 2.6 0 4.1 1.7 4.1 4.4v8.4h-3.3V30c0-1.4-.7-2.1-1.9-2.1-1.4 0-2.2 1.1-2.2 2.7v7.2h-3.3V30c0-1.4-.7-2.1-1.9-2.1s-2.2 1.1-2.2 2.7v7.2h-3.3V25.3zm20.2-4.9h3.3v3h-3.3v-3zm0 4.9h3.3v12.4h-3.3V25.3zm4.7 8.5h3c.2 1.4 1.2 2.1 2.7 2.1s2.3-.6 2.3-1.4c0-1.2-1.6-1.3-3.3-1.7-2.2-.4-4.4-1-4.4-3.8s2.2-4 5.1-4c3.3 0 5.1 1.6 5.3 4.1h-3c-.1-1.3-1-1.8-2.4-1.8s-2.1.5-2.1 1.4c0 1.1 1.6 1.2 3.4 1.5 2.1.4 4.4 1 4.4 3.9 0 2.5-2.1 4-5.2 4-3.6 0-5.6-1.7-5.8-4.3zm11.6-8.5h1.7v-3.9h3.2v3.9h2.1v2.2h-2.1v6.6c-.1.6.3 1.2.9 1.2h1.3v2.4h-2.1c-1.6 0-3.4-.6-3.4-3v-7.3h-1.7l.1-2.1zm11.7 2c.8-1.4 1.7-2.1 3.1-2.1.3 0 .5 0 .8.1v2.9h-.1c-2.2-.2-3.7.9-3.7 3.5v6.1h-3.3V25.3h3.2v2zm5.8 11.9h1.2c1.3 0 1.8-.7 1.8-1.7-.1-1.2-.5-2.3-1-3.4l-3.4-8.8h3.5l1.9 5.6c.4 1.1.8 2.7.8 2.7.2-.9.4-1.8.7-2.7l1.8-5.6h3.4l-4.3 12.8c-1 2.8-1.9 3.8-4.4 3.8h-1.9l-.1-2.7zm-261.6-29c0-2.8 1.7-5 4.6-5 1.9-.2 3.6 1.2 3.9 3.1H108c-.3-1.3-1.4-2.1-2.7-2-2.1 0-3.3 1.7-3.3 4s1.3 4 3.3 4c1.5.1 2.7-1.1 2.8-2.5v-.1h1.2c0 1-.5 2-1.2 2.7-.8.7-1.8 1.1-2.9 1-2.7-.2-4.5-2.2-4.5-5.2zm9.4 1.4c-.1-1.9 1.2-3.5 3.1-3.6 1.9-.1 3.5 1.2 3.6 3.1v.5c.1 1.9-1.2 3.5-3.1 3.6-1.9.1-3.5-1.2-3.6-3.1v-.5zm5.6 0c0-1.5-.8-2.8-2.2-2.8s-2.3 1.2-2.3 2.8c0 1.5.8 2.8 2.3 2.8s2.2-1.3 2.2-2.8zm2.3-6.2h1.1V15H118V5.4zm2.5 0h1.1V15h-1.1V5.4zm2.2 6.2c-.1-1.9 1.3-3.5 3.1-3.7h.2c2.1 0 3.2 1.6 3.2 3.9h-5.4c.1 1.4.9 2.5 2.3 2.5.9.1 1.7-.5 1.9-1.4h1.1c-.3 1.4-1.5 2.4-3 2.3-1.9 0-3.4-1.5-3.4-3.4v-.2zm1.1-.6h4.2c-.1-1.4-.8-2.2-2-2.2s-2 .9-2.2 2.2zm6.3 4.5h1c.1.8.8 1.1 1.9 1.1 1.3 0 2-.6 2-1.8v-1c-.4.7-1.2 1.1-2 1.1-1.8 0-3.1-1.4-3.1-3.5s1.4-3.4 3-3.4c.8 0 1.6.4 2.1 1.1v-1h1.1v6.6c0 1.8-1.2 2.7-3.1 2.7s-2.8-.7-2.9-1.9zm5-4.2c0-1.5-.6-2.5-2.1-2.5-1.3 0-2 1-2 2.5s.7 2.5 2 2.5c1.6.1 2.1-1 2.1-2.5zm2.1.3c-.1-1.9 1.2-3.5 3.1-3.7h.2c2.1 0 3.2 1.6 3.2 3.9h-5.4c.1 1.4.9 2.5 2.2 2.5.9.1 1.8-.5 1.9-1.4h1.1c-.2 1.4-1.5 2.5-3 2.3-1.9 0-3.4-1.5-3.4-3.3.1-.1.1-.2.1-.3zm1.2-.6h4.2c-.1-1.4-.8-2.2-2-2.2s-2.1.9-2.2 2.2zm11-6.1h.9v11.8h-.9V4.9zm7.2.5h4c.9-.1 1.7.3 2.3.9.4.5.7 1.2.6 1.8 0 1.8-1 2.8-3.1 2.8h-2.6V15h-1.2V5.4zm1.2 4.6h2.5c1.4 0 2-.7 2-1.8s-.7-1.8-1.9-1.8h-2.6V10zm7.8-1c.5-.7 1.3-1.1 2.2-1.1 1.2-.1 2.2.7 2.3 1.8V15H169v-4.8c0-.9-.6-1.4-1.6-1.4s-1.9.8-1.9 1.8v4.5h-1.1V5.4h1.1l.1 3.6zm5.6 8.2v-1h.1c.2.1.5.2.7.2.5 0 .8-.2 1-.8l.3-.7-2.7-6.8h1.2l1.6 4.4c.2.6.5 1.4.5 1.4s.2-.8.4-1.4l1.6-4.4h1.2l-3 7.6c-.6 1.5-1.1 1.7-2 1.7-.3 0-.6-.1-.9-.2zm6.1-4.4h1.1c.1 1.2.9 1.6 2 1.6s1.6-.5 1.6-1.2-.5-1-1.8-1.3-2.6-.6-2.6-2.1c0-1.2.9-1.9 2.5-1.9s2.6.8 2.7 2.2h-1.1c-.1-.9-.6-1.3-1.6-1.3s-1.4.4-1.4 1c0 .8.7.9 1.9 1.1 1.4.3 2.6.6 2.6 2.2 0 1.4-1.1 2.1-2.8 2.1-1.9.1-3-.8-3.1-2.4zm6.9-7.4h1.1v1.4h-1.1V5.4zm0 2.7h1.1v7h-1.1v-7zm2.2 3.5c-.2-1.9 1.2-3.5 3.1-3.7h.3c1.5-.1 2.8 1 3 2.4h-1.1c-.1-.9-.9-1.6-1.9-1.5-1.5 0-2.2 1.2-2.2 2.8 0 1.5.8 2.8 2.2 2.8 1 .1 1.8-.6 1.9-1.6v-.1h1.1c0 1.5-1.3 2.7-2.8 2.7h-.2c-1.9 0-3.4-1.5-3.4-3.4v-.4zm11.7 2.5c-.5.7-1.4 1.1-2.3 1.1-1.3 0-2.4-.6-2.4-2 0-1.6 1.3-2 3-2.2 1-.1 1.7-.2 1.7-1s-.6-1.2-1.6-1.2-1.7.5-1.7 1.5h-1.1c0-1.4.9-2.4 2.8-2.4 1.5 0 2.6.5 2.6 2.2v3.3c0 .6.1.9.8.8v.8c-.2.1-.4.1-.6.1-.7 0-1.2-.4-1.2-1zm0-1.6v-1.2c-.5.3-1 .4-1.6.5-1.1.2-2 .4-2 1.4s.7 1.1 1.4 1.1c1.1.2 2.1-.7 2.2-1.8zm2.6-7.1h1.1V15h-1.1V5.4zm4.3 6.4h1.2c.2 1.6 1.2 2.5 3 2.5 1.3 0 2.3-.6 2.3-1.8s-1.2-1.6-2.9-2-3.2-.9-3.2-2.7c0-1.6 1.3-2.5 3.3-2.5 2.4 0 3.4 1.2 3.7 3h-1.1c-.1-1.2-1.1-2.2-2.4-2.1h-.1c-1.3 0-2.2.6-2.2 1.6s1.1 1.4 2.5 1.7c1.9.4 3.6.8 3.6 3 0 1.8-1.5 2.8-3.6 2.8-2.7-.1-4-1.6-4.1-3.5zm8.5-.2c-.2-1.9 1.2-3.5 3.1-3.7h.3c1.5-.1 2.8 1 3 2.4h-1.1c-.1-.9-.9-1.6-1.9-1.5-1.5 0-2.2 1.2-2.2 2.8 0 1.5.8 2.8 2.2 2.8 1 .1 1.8-.6 1.9-1.6v-.1h1.1c0 1.5-1.3 2.7-2.8 2.7h-.2c-1.9 0-3.4-1.5-3.4-3.4v-.4zm7.4-6.2h1.1v1.4h-1.1V5.4zm0 2.7h1.1v7h-1.1v-7zm2.2 3.5c-.1-1.9 1.2-3.5 3.1-3.7h.2c2.1 0 3.2 1.6 3.2 3.9h-5.4c.1 1.4.9 2.5 2.2 2.5.9.1 1.7-.5 1.9-1.4h1.1c-.2 1.4-1.5 2.5-3 2.3-1.9 0-3.4-1.5-3.4-3.3.1-.1.1-.2.1-.3zm1.1-.6h4.2c-.1-1.4-.8-2.2-2-2.2s-2 .9-2.2 2.2zm7.6-2c.5-.7 1.4-1.1 2.2-1.1 1.2-.1 2.2.7 2.3 1.8V15h-1.1v-4.8c0-.9-.6-1.4-1.6-1.4s-1.9.8-1.9 1.8v4.5h-1.1v-7h1.1l.1.9zm5.6 2.6c-.1-1.9 1.2-3.5 3.1-3.7h.3c1.5-.1 2.8.9 3 2.4h-1.1c-.1-.9-.9-1.6-1.9-1.5-1.5 0-2.3 1.2-2.3 2.8 0 1.5.8 2.8 2.3 2.8 1 .1 1.8-.6 1.9-1.6v-.1h1.1c0 1.5-1.3 2.7-2.8 2.7h-.2c-1.9 0-3.4-1.5-3.4-3.4v-.4zm7 0c-.1-1.9 1.3-3.5 3.1-3.7h.2c2.1 0 3.2 1.6 3.2 3.9h-5.4c.1 1.4.9 2.5 2.3 2.5.9.1 1.7-.5 1.9-1.4h1.1c-.3 1.4-1.5 2.4-3 2.3-1.9 0-3.4-1.5-3.4-3.3-.1-.1 0-.2 0-.3zm1.1-.6h4.2c-.1-1.4-.8-2.2-2-2.2s-2 .9-2.2 2.2zm6 1.8h1.1c.1 1.2 1 1.6 2 1.6s1.6-.5 1.6-1.2-.5-1-1.8-1.3-2.6-.6-2.6-2.1c0-1.2.9-1.9 2.5-1.9s2.6.8 2.7 2.2h-1.1c-.1-.9-.6-1.3-1.6-1.3s-1.4.4-1.4 1c0 .8.7.9 1.9 1.1 1.4.3 2.6.6 2.6 2.2 0 1.4-1.1 2.1-2.8 2.1-2 .1-3-.8-3.1-2.4z"/><path style="fill:#2774ae" d="M0 0h92v44H0z"/><path d="M14.7 26.2V24l1-12h3.8l-1 12.1c-.2 2.6.8 4.5 3.3 4.5s4-1.9 4.2-4.2L27 12h4l-1 12.2c-.4 4.7-3.5 8.2-8.4 8.2-3.9.1-6.4-2.5-6.9-6.2m17.2-4c.5-5.8 4.3-10.5 10.9-10.5 1.8 0 3.6.5 5.1 1.5l-.4 4.8c-1.1-1.6-3-2.5-5-2.4-4.1 0-6.3 2.9-6.7 6.6s1.5 6.5 5.5 6.5c2.1 0 4.1-.9 5.5-2.5l-.5 4.8c-1.6 1-3.5 1.5-5.4 1.5-6.5 0-9.5-4.9-9-10.3m19-10.2h3.8l-1.4 16.3h7.5c0 .2-.3 3.8-.3 3.8H49.2L50.9 12zm20 7.5c.1-.3.2-.6.3-.8h.1c0 .3.1.6.2.8.2.9 1.7 6 1.7 6h-4.8c-.1 0 2.5-5.8 2.5-6m1-8.4h-.3L61.1 32h4.1l1.5-3.2h7.4L75 32h4.1l-7.2-20.9z" style="fill:#fff"/></svg>